<?xml version="1.0" encoding="UTF-8"?>
<svg width="382px" height="382px" viewBox="0 0 382 382" version="1.1" xmlns="http://www.w3.org/2000/svg" xmlns:xlink="http://www.w3.org/1999/xlink">
    <!-- Generator: Sketch 48.2 (47327) - http://www.bohemiancoding.com/sketch -->
    <title>Group 2</title>
    <desc>Created with Sketch.</desc>
    <defs></defs>
    <g id="Page-1" stroke="none" stroke-width="1" fill="none" fill-rule="evenodd">
        <g id="Group-2" transform="translate(4.000000, 0.000000)">
            <g id="Group-Copy" transform="translate(0.000000, 5.000000)">
                <circle id="Oval" cx="187" cy="186" r="186"></circle>
                <path d="M187,372 C223.342655,372 257.250869,361.576918 285.898373,343.557024 C300.017987,334.675483 312.859644,323.948487 324.084949,311.71443 C325.939378,309.693354 302.5,277.5 321.5,268 C337,264 332.571643,301.815868 334.046699,299.914554 C357.753876,269.356548 372.146122,231.210266 372.963228,189.73592 C372,189.73592 302.5,190.5 229.5,162.5 C156.5,134.5 1,83.2750365 1,186 C1,288.724963 84.2750365,372 187,372 Z" id="Oval-Copy-4" stroke="#605765" stroke-width="9" fill="#605765"></path>
                <path d="M191.273364,371.951876 C205.926602,371.621535 220.161529,369.596594 233.789867,366.06533 C236.641607,365.32641 208.896092,290.961037 236.5,294.5 C256,297 248.228672,361.693388 249.639095,361.189037 C258.964039,357.854545 267.944999,353.796675 276.514378,349.083026 C276.514378,312.5 276.514378,259.27542 276.514378,189 C262,188.5 203,189 191.273364,189 C191.273364,198.333333 191.015576,257.35511 190.5,366.06533 C190.5,369.35511 190.757788,371.317292 191.273364,371.951876 Z" id="Oval-Copy-3" fill="#F3F3F3"></path>
                <path d="M187,372 C187.722662,372 178.402182,374.483638 180,362.5 C180.666667,357.5 181,300.166667 181,190.5 L158,190.5 C157.712239,190.791468 157.498359,191.010868 157.358359,191.1582 C148.889971,200.070159 148.702286,206.047351 149,216 C149.297714,225.952649 165,253.5 153,256 C131.811478,258.846219 124.874653,239.53726 132.189526,198.073121 L132.189532,198.073122 C132.765228,194.809802 130.586479,191.697664 127.323159,191.121967 C127.014109,191.067446 126.701259,191.037256 126.387486,191.031674 L96.5,190.5 L98.0153004,317.027526 C98.3065516,341.347003 115.729958,362.076962 139.636737,366.54773 C159.073545,370.182577 174.8613,372 187,372 Z" id="Oval-Copy-2" fill="#F3F3F3"></path>
                <path d="M87.5,258 C87.5,256.672346 34,277 47.5,189.5 C47.5789102,188.988545 0.458401543,189.5 1,189.5 C2.3384191,253.365276 35.9084431,309.788221 86.0569497,342.252209 C86.0569497,290 87.5,266 87.5,258 Z" id="Oval-Copy" fill="#F3F3F3"></path>
            </g>
            <g id="Group-Copy-2" transform="translate(189.000000, 189.000000) rotate(-180.000000) translate(-189.000000, -189.000000) translate(1.000000, 0.000000)">
                <circle id="Oval" cx="190" cy="186" r="186"></circle>
                <path d="M96.0694238,183.5 C96.0694238,161.5 94,176.224963 94,73.5 C94,72.9257887 96.0694238,32.5 96.0694238,25.4254024 C78.5658378,35.6865107 62.8894311,48.7277932 49.6464582,63.9429954 C48.4568454,65.3097729 76,90 56.5,103 C37,116 44.5981533,69.9897523 43.8425216,70.9483585 C20.3882749,100.702784 5.82516148,137.792582 4.1601419,178.21079 C4.0537293,180.793947 83,179.5 96.0694238,183.5 Z" id="Oval-Copy-5" fill="#F3F3F3"></path>
                <circle id="Oval-2" fill="#F3F3F3" cx="326.5" cy="230.5" r="7.5"></circle>
                <path d="M194.273364,376.951876 C208.926602,376.621535 223.161529,374.596594 236.789867,371.06533 C239.641607,370.32641 211.896092,295.961037 239.5,299.5 C259,302 251.228672,366.693388 252.639095,366.189037 C261.964039,362.854545 270.944999,358.796675 279.514378,354.083026 C279.514378,317.5 279.514378,264.27542 279.514378,194 C265,193.5 206,194 194.273364,194 C194.273364,203.333333 194.015576,262.35511 193.5,371.06533 C193.5,374.35511 193.757788,376.317292 194.273364,376.951876 Z" id="Oval-Copy-3" fill="#F3F3F3"></path>
                <path d="M190,377 C190.722662,377 181.402182,379.483638 183,367.5 C183.666667,362.5 184,305.166667 184,195.5 L161,195.5 C160.712239,195.791468 160.498359,196.010868 160.358359,196.1582 C151.889971,205.070159 151.702286,211.047351 152,221 C152.297714,230.952649 168,258.5 156,261 C134.811478,263.846219 127.874653,244.53726 135.189526,203.073121 L135.189532,203.073122 C135.765228,199.809802 133.586479,196.697664 130.323159,196.121967 C130.014109,196.067446 129.701259,196.037256 129.387486,196.031674 L99.5,195.5 L101.0153,322.027526 C101.306552,346.347003 118.729958,367.076962 142.636737,371.54773 C162.073545,375.182577 177.8613,377 190,377 Z" id="Oval-Copy-2" fill="#F3F3F3"></path>
                <path d="M87.5,262 C87.5,260.672346 34,281 47.5,193.5 C47.5789102,192.988545 0.458401543,193.5 1,193.5 C2.3384191,257.365276 35.9084431,313.788221 86.0569497,346.252209 C86.0569497,294 87.5,270 87.5,262 Z" id="Oval-Copy" fill="#F3F3F3"></path>
                <circle id="Oval-2" fill="#605765" cx="58.5" cy="143.5" r="7.5"></circle>
            </g>
        </g>
    </g>
</svg>
