<?xml version="1.0" encoding="UTF-8"?>
<svg width="375px" height="474px" viewBox="0 0 375 474" version="1.1" xmlns="http://www.w3.org/2000/svg" xmlns:xlink="http://www.w3.org/1999/xlink">
    <!-- Generator: Sketch 48.2 (47327) - http://www.bohemiancoding.com/sketch -->
    <title>Group 2 Copy</title>
    <desc>Created with Sketch.</desc>
    <defs></defs>
    <g id="Page-1" stroke="none" stroke-width="1" fill="none" fill-rule="evenodd">
        <g id="Group-2-Copy" transform="translate(-1.000000, 0.000000)">
            <g id="Group-Copy-3" transform="translate(0.000000, 5.000000)">
                <circle id="Oval" cx="187" cy="186" r="186"></circle>
                <path d="M187,372 C223.342655,372 257.250869,361.576918 285.898373,343.557024 C300.017987,334.675483 312.859644,323.948487 324.084949,311.71443 C325.939378,309.693354 302.5,277.5 321.5,268 C337,264 332.571643,301.815868 334.046699,299.914554 C357.753876,269.356548 372.146122,231.210266 372.963228,189.73592 C372,189.73592 302.5,190.5 229.5,162.5 C156.5,134.5 1,83.2750365 1,186 C1,288.724963 84.2750365,372 187,372 Z" id="Oval-Copy-4"></path>
                <path d="M191.273364,371.951876 C205.926602,371.621535 220.161529,369.596594 233.789867,366.06533 C236.641607,365.32641 208.896092,290.961037 236.5,294.5 C256,297 248.228672,361.693388 249.639095,361.189037 C258.964039,357.854545 267.944999,353.796675 276.514378,349.083026 C276.514378,312.5 276.514378,259.27542 276.514378,189 C262,188.5 203,189 191.273364,189 C191.273364,198.333333 191.015576,257.35511 190.5,366.06533 C190.5,369.35511 190.757788,371.317292 191.273364,371.951876 Z" id="Oval-Copy-3" fill="#EDEDED"></path>
                <path d="M187,372 C187.722662,372 178.402182,374.483638 180,362.5 C180.666667,357.5 181,300.166667 181,190.5 L158,190.5 C157.712239,190.791468 157.498359,191.010868 157.358359,191.1582 C148.889971,200.070159 148.702286,206.047351 149,216 C149.297714,225.952649 165,253.5 153,256 C131.811478,258.846219 124.874653,239.53726 132.189526,198.073121 L132.189532,198.073122 C132.765228,194.809802 130.586479,191.697664 127.323159,191.121967 C127.014109,191.067446 126.701259,191.037256 126.387486,191.031674 L96.5,190.5 L98.0153004,317.027526 C98.3065516,341.347003 115.729958,362.076962 139.636737,366.54773 C159.073545,370.182577 174.8613,372 187,372 Z" id="Oval-Copy-2" fill="#EDEDED"></path>
                <path d="M87.5,258 C87.5,256.672346 34,277 47.5,189.5 C47.5789102,188.988545 0.458401543,189.5 1,189.5 C2.3384191,253.365276 35.9084431,309.788221 86.0569497,342.252209 C86.0569497,290 87.5,266 87.5,258 Z" id="Oval-Copy" fill="#EDEDED"></path>
            </g>
            <g id="Group-Copy-4" transform="translate(189.000000, 189.000000) rotate(-180.000000) translate(-189.000000, -189.000000) translate(1.000000, 0.000000)">
                <circle id="Oval" cx="190" cy="186" r="186"></circle>
                <path d="M96.0694238,183.5 C96.0694238,161.5 94,176.224963 94,73.5 C94,72.9257887 96.0694238,32.5 96.0694238,25.4254024 C78.5658378,35.6865107 62.8894311,48.7277932 49.6464582,63.9429954 C48.4568454,65.3097729 76,90 56.5,103 C37,116 44.5981533,69.9897523 43.8425216,70.9483585 C20.3882749,100.702784 5.82516148,137.792582 4.1601419,178.21079 C4.0537293,180.793947 83,179.5 96.0694238,183.5 Z" id="Oval-Copy-5" fill="#EDEDED"></path>
                <circle id="Oval-2" fill="#F3F3F3" cx="326.5" cy="230.5" r="7.5"></circle>
                <path d="M194.273364,376.951876 C208.926602,376.621535 223.161529,374.596594 236.789867,371.06533 C239.641607,370.32641 211.896092,295.961037 239.5,299.5 C259,302 251.228672,366.693388 252.639095,366.189037 C261.964039,362.854545 270.944999,358.796675 279.514378,354.083026 C279.514378,317.5 279.514378,264.27542 279.514378,194 C265,193.5 206,194 194.273364,194 C194.273364,203.333333 194.015576,262.35511 193.5,371.06533 C193.5,374.35511 193.757788,376.317292 194.273364,376.951876 Z" id="Oval-Copy-3" fill="#EDEDED"></path>
                <path d="M190,377 C190.722662,377 181.402182,379.483638 183,367.5 C183.666667,362.5 184,305.166667 184,195.5 L161,195.5 C160.712239,195.791468 160.498359,196.010868 160.358359,196.1582 C151.889971,205.070159 151.702286,211.047351 152,221 C152.297714,230.952649 168,258.5 156,261 C134.811478,263.846219 127.874653,244.53726 135.189526,203.073121 L135.189532,203.073122 C135.765228,199.809802 133.586479,196.697664 130.323159,196.121967 C130.014109,196.067446 129.701259,196.037256 129.387486,196.031674 L99.5,195.5 L101.0153,322.027526 C101.306552,346.347003 118.729958,367.076962 142.636737,371.54773 C162.073545,375.182577 177.8613,377 190,377 Z" id="Oval-Copy-2" fill="#EDEDED"></path>
                <path d="M87.5,262 C87.5,260.672346 34,281 47.5,193.5 C47.5789102,192.988545 0.458401543,193.5 1,193.5 C2.3384191,257.365276 35.9084431,313.788221 86.0569497,346.252209 C86.0569497,294 87.5,270 87.5,262 Z" id="Oval-Copy" fill="#EDEDED"></path>
                <circle id="Oval-2" fill="#FFFFFF" cx="58.5" cy="143.5" r="7.5"></circle>
            </g>
            <path d="M112.263984,457.629648 C112.553322,457.308162 112.842655,456.914348 113.131992,456.448193 C113.42133,455.982038 113.807107,455.475706 114.289336,454.929179 L117.472031,452.132265 C117.600626,452.035819 117.672959,451.907227 117.689033,451.746484 C117.705108,451.585741 117.713145,451.360704 117.713145,451.071367 C117.680996,450.653435 117.632774,450.31588 117.568477,450.058691 C117.568477,449.319273 117.713143,448.081571 118.002481,446.345546 C118.291818,444.609522 118.549003,443.564708 118.774043,443.211074 L118.484707,442.294843 C118.902639,440.140887 119.489342,437.786037 120.244834,435.230224 C121.000326,432.67441 121.860288,429.901635 122.824746,426.911815 C123.146232,426.397438 123.483787,425.746438 123.837422,424.958798 C124.191057,424.171157 124.592908,423.279047 125.042989,422.28244 C125.589515,420.610713 126.312847,418.858641 127.213008,417.026171 C128.113169,415.193701 129.125835,413.313036 130.251036,411.38412 C131.76202,408.84438 133.104204,406.931568 134.277627,405.645624 C135.451051,404.35968 136.503902,403.716717 137.436211,403.716717 C139.30083,403.716717 140.578718,404.078384 141.269913,404.801727 C141.961108,405.525071 142.3067,406.883328 142.3067,408.876542 C142.3067,409.390919 142.218293,410.186585 142.041475,411.263563 C141.864658,412.340541 141.776251,413.152281 141.776251,413.698807 C141.776251,414.245334 141.599436,415.016888 141.245801,416.013495 C140.892167,417.010101 140.715352,417.926323 140.715352,418.762186 C140.683204,419.019375 140.602833,419.27656 140.474239,419.533749 L140.522462,420.208866 C140.393867,420.658946 140.200978,421.205464 139.94379,421.848436 C139.686601,422.491408 139.349046,423.262963 138.931114,424.163124 C138.706074,424.966839 138.416741,425.899134 138.063106,426.960038 C137.709471,428.020942 137.291546,429.178274 136.809317,430.432069 C136.616425,430.753555 136.367277,431.14737 136.061866,431.613525 C135.756454,432.079679 135.426936,432.602086 135.073301,433.180761 C134.976855,433.598693 134.816115,434.080914 134.591075,434.627441 C134.366034,435.173967 134.060627,435.816929 133.674844,436.556347 C133.481953,436.94213 133.224768,437.360056 132.903282,437.810136 C132.581796,438.260216 132.196018,438.838882 131.745938,439.546152 C131.553046,439.867638 131.344084,440.269489 131.119043,440.751718 C130.894003,441.233947 130.636818,441.780465 130.347481,442.391288 C129.993846,442.937815 129.527699,443.612925 128.949024,444.41664 C128.370349,445.220355 127.711313,446.168724 126.971895,447.261777 C125.975288,449.02995 124.946549,450.717726 123.885645,452.325156 C123.885645,455.44357 124.504496,457.798419 125.742217,459.389775 C126.979938,460.981131 128.836492,461.776797 131.311934,461.776797 C131.472677,461.776797 131.954899,461.664278 132.758614,461.439238 C133.562329,461.214198 134.671439,460.860569 136.085977,460.37834 C136.503909,460.121151 137.002205,459.759484 137.580879,459.29333 C138.159554,458.827175 138.818591,458.27262 139.558008,457.629648 L141.438692,462.066133 C140.602828,462.80555 139.766977,463.561031 138.931114,464.332597 C138.09525,465.104164 137.243325,465.859645 136.375313,466.599062 C135.378706,467.434926 134.366041,468.069851 133.337286,468.503857 C132.30853,468.937863 131.295865,469.154863 130.299258,469.154863 C129.784881,469.154863 128.997252,469.098604 127.936348,468.986084 C126.875444,468.873564 126.071741,468.817305 125.525215,468.817305 C123.724894,468.817305 122.238043,468.093972 121.064619,466.647285 C119.891195,465.200598 119.063381,463.0306 118.581152,460.137226 C118.516855,459.847889 118.428448,459.590704 118.315928,459.365664 C118.203408,459.140624 118.002482,458.883439 117.713145,458.594101 C117.295213,459.012033 116.804954,459.510329 116.242354,460.089004 C115.679753,460.667678 114.996606,461.326715 114.192891,462.066133 L112.263984,457.629648 Z M135.266192,419.774862 L134.928633,419.581972 C133.128312,421.317996 131.770054,422.95755 130.853819,424.500683 C129.937584,426.043815 129.479473,427.538703 129.479473,428.98539 C129.479473,429.21043 129.374992,429.58817 129.166026,430.118622 C128.95706,430.649074 128.643616,431.332222 128.225684,432.168085 C127.711306,433.164692 127.180862,434.257728 126.634336,435.447226 C126.023513,437.247547 125.557365,438.710287 125.235879,439.835488 C124.914393,440.960689 124.753653,441.764391 124.753653,442.24662 L125.042989,442.632402 C125.332326,442.600253 125.685955,442.31092 126.103887,441.764394 C126.521819,441.217868 127.004041,440.414165 127.550567,439.353261 C127.807755,438.774586 128.177459,438.099476 128.659688,437.327909 C129.141917,436.556343 129.688435,435.640122 130.299258,434.579218 C130.813636,433.871949 131.633413,432.05558 132.758614,429.130058 C133.883815,426.204535 134.494629,424.339944 134.591075,423.536229 C134.623223,422.893257 134.711631,422.258332 134.856299,421.631434 C135.000968,421.004537 135.137597,420.385686 135.266192,419.774862 Z M139.461563,457.629648 C139.590157,457.533202 139.694639,457.420684 139.77501,457.29209 C139.855382,457.163495 139.895567,457.002755 139.895567,456.809863 C140.442093,456.359783 141.060944,455.740931 141.752139,454.953291 C142.443334,454.16565 143.222926,453.241392 144.090938,452.180488 C144.798207,451.21603 145.529577,450.251586 146.285069,449.287128 C147.040561,448.32267 147.852301,447.358227 148.720313,446.393769 C149.427582,445.429311 150.126804,444.424682 150.817999,443.379853 C151.509194,442.335023 152.240563,441.314321 153.01213,440.317714 C154.298074,439.706891 155.294665,439.272891 156.001935,439.015702 C156.709204,438.758514 157.191425,438.629921 157.448614,438.629921 C157.930843,438.629921 158.300547,438.782625 158.557735,439.088036 C158.814924,439.393448 158.943517,439.835485 158.943517,440.414159 C158.943517,440.607051 158.895294,440.88031 158.798849,441.233945 C158.702403,441.587579 158.589884,441.973357 158.46129,442.391288 C158.23625,443.03426 157.979065,443.693297 157.689728,444.368417 C157.432539,445.493618 157.127132,446.618802 156.773497,447.744003 C156.419862,448.869204 156.082307,449.978314 155.760821,451.071367 C155.439335,452.453756 155.190187,453.723607 155.01337,454.880957 C154.836553,456.038306 154.748145,457.099194 154.748145,458.063652 C154.748145,459.863974 154.836553,461.19812 155.01337,462.066133 C155.190187,462.934145 155.439335,463.319922 155.760821,463.223476 C156.082307,463.030585 156.484159,462.797511 156.966388,462.524248 C157.448617,462.250985 158.011209,461.937541 158.654181,461.583906 C159.232855,460.973083 159.883855,460.217602 160.607198,459.317441 C161.330542,458.41728 162.206578,457.356393 163.235333,456.134746 C163.814008,455.234585 164.408748,454.350512 165.019571,453.4825 C165.244612,453.225311 165.509834,452.919904 165.815245,452.566269 C166.120657,452.212635 166.401953,451.859005 166.659142,451.505371 C167.269965,449.962238 167.953113,448.812943 168.708605,448.057451 C169.464097,447.301959 170.307985,446.924218 171.240294,446.924218 C172.076158,446.924218 172.743231,447.0287 173.241534,447.237665 C173.739838,447.446631 174.08543,447.760076 174.278322,448.178007 C174.374767,448.403047 174.455138,448.788825 174.519435,449.335351 C174.583732,449.881877 174.61588,450.60521 174.61588,451.505371 C174.61588,451.859005 174.688213,452.373375 174.832882,453.048496 C174.977551,453.723616 175.049884,454.221912 175.049884,454.543398 C175.049884,455.732896 175.258847,456.625006 175.676779,457.219756 C176.09471,457.814505 176.737673,458.111875 177.605685,458.111875 C177.862874,458.111875 178.168281,458.063653 178.521915,457.967207 C178.87555,457.870761 179.229179,457.758243 179.582814,457.629648 L181.51172,462.066133 C179.582804,463.223482 177.99951,464.099518 176.761788,464.694267 C175.524067,465.289017 174.599809,465.586387 173.988986,465.586387 C172.381556,465.586387 171.063483,465.168461 170.034728,464.332597 C169.005973,463.496734 168.250492,462.259031 167.768263,460.619453 C167.703966,460.23367 167.567336,459.847892 167.35837,459.462109 C167.149404,459.076326 166.884182,458.690549 166.562696,458.304765 C166.273359,458.626251 165.943841,459.012029 165.574132,459.462109 C165.204423,459.912189 164.810609,460.362263 164.392677,460.812344 C163.524665,461.873247 162.656666,462.910024 161.788653,463.922705 C160.920641,464.935386 160.036568,465.940014 159.136407,466.936621 C158.011206,468.254714 156.877985,469.21112 155.73671,469.805869 C154.595435,470.400618 153.52651,470.697988 152.529903,470.697988 C151.051068,470.697988 149.861587,470.255952 148.961427,469.371865 C148.061266,468.487779 147.4826,467.177743 147.225411,465.441719 C146.936073,463.769991 146.743185,462.467993 146.646739,461.535683 C146.550293,460.603374 146.534219,460.040782 146.598516,459.84789 C146.534219,458.915581 146.445812,458.208322 146.333292,457.726093 C146.220772,457.243864 146.051994,457.002754 145.826954,457.002754 L145.537618,457.147422 L142.788926,459.992558 C142.692481,460.217599 142.53174,460.498895 142.3067,460.836455 C142.08166,461.174015 141.776253,461.583904 141.390469,462.066133 C141.261875,461.583904 141.036838,460.989163 140.715352,460.281894 C140.393866,459.574625 139.975941,458.690552 139.461563,457.629648 Z M179.582814,457.629648 C179.711408,457.404608 179.880186,457.15546 180.089152,456.882197 C180.298118,456.608934 180.547266,456.279416 180.836603,455.893632 C181.158089,455.636444 181.576015,455.26674 182.090392,454.784511 C182.60477,454.302282 183.183436,453.73969 183.826408,453.096718 C184.405083,452.453746 185.112341,451.65808 185.948205,450.709697 C186.784068,449.761313 187.796734,448.612018 188.986232,447.261777 C189.50061,446.715251 190.143572,446.016029 190.915138,445.164091 C191.686705,444.312153 192.602926,443.291451 193.66383,442.101952 C194.563991,441.041049 195.528434,440.25342 196.557189,439.739042 C197.585944,439.224665 198.67898,438.96748 199.83633,438.96748 C200.99368,438.96748 201.845605,439.329146 202.392131,440.05249 C202.938657,440.775833 203.211916,441.828684 203.211916,443.211074 C203.211916,443.950491 202.938657,445.365009 202.392131,447.454667 C201.845605,449.544326 200.99368,452.309064 199.83633,455.748964 C199.546993,456.391936 199.273734,457.002751 199.016545,457.581425 C198.823653,457.999357 198.695061,458.369061 198.630764,458.690547 C198.566466,459.012033 198.534318,459.253143 198.534318,459.413886 C198.534318,459.606778 198.646837,459.847889 198.871877,460.137226 C199.03262,460.040781 199.185323,459.912188 199.329992,459.751445 C199.474661,459.590702 199.643438,459.397813 199.83633,459.172773 C200.093519,458.690544 200.487333,458.184211 201.017785,457.653759 C201.548237,457.123308 202.183162,456.536604 202.92258,455.893632 C203.211917,455.347106 203.589658,454.808625 204.055812,454.278173 C204.521967,453.747722 205.044374,453.257463 205.623049,452.807382 C205.751643,452.678788 205.920421,452.469825 206.129387,452.180488 C206.338353,451.89115 206.587501,451.585743 206.876838,451.264257 C207.29477,450.846326 207.793066,450.412326 208.37174,449.962246 C208.950415,449.512165 209.625526,449.046018 210.397092,448.563789 C211.265104,448.113708 212.044696,447.760079 212.735891,447.50289 C213.427086,447.245701 214.029863,447.117109 214.54424,447.117109 C215.540847,447.117109 216.42492,447.35822 217.196487,447.840449 C217.968053,448.322678 218.627089,449.078158 219.173616,450.106914 C219.816588,452.100127 220.427402,453.948643 221.006077,455.652519 C221.359711,456.649126 221.753526,457.388532 222.187532,457.870761 C222.621538,458.35299 223.111797,458.594101 223.658323,458.594101 C224.076254,458.594101 224.453995,458.513731 224.791555,458.352988 C225.129115,458.192245 225.44256,457.951134 225.731897,457.629648 L227.660803,462.066133 C227.114277,462.516213 226.551685,462.982361 225.97301,463.46459 C225.394335,463.946819 224.831743,464.412966 224.285217,464.863047 C223.545799,465.538167 222.854615,466.012352 222.211643,466.285615 C221.568671,466.558878 220.925709,466.695508 220.282737,466.695508 C219.543319,466.695508 218.83606,466.534767 218.16094,466.213281 C217.485819,465.891795 216.907153,465.409573 216.424924,464.766601 C216.167735,464.509413 215.846254,464.035228 215.460471,463.344033 C215.074688,462.652838 214.624614,461.792876 214.110237,460.764121 C213.692305,460.346189 213.21812,459.791634 212.687668,459.100439 C212.157216,458.409244 211.538365,457.597504 210.831096,456.665195 L210.397092,456.520527 C209.786269,456.713419 209.183491,457.002752 208.588742,457.388535 C207.993993,457.774318 207.359068,458.272614 206.683947,458.883437 C205.23726,460.169381 204.192447,460.973084 203.549475,461.29457 C202.906503,461.616056 202.472503,461.985759 202.247463,462.403691 C201.797382,463.175258 201.025828,464.171849 199.932775,465.393496 C198.839723,466.615143 197.473428,468.061808 195.833849,469.733535 C195.415918,470.151467 194.997992,470.561355 194.58006,470.963213 C194.162129,471.36507 193.744203,471.758885 193.326271,472.144668 C192.908339,472.498303 192.434155,472.74745 191.903703,472.892119 C191.373251,473.036788 190.786548,473.109121 190.143576,473.109121 C188.857632,473.109121 188.15841,472.667085 188.04589,471.782998 C187.93337,470.898912 187.828889,470.006801 187.732443,469.106641 C188.214672,467.756399 188.76119,466.068623 189.372013,464.043262 C189.982837,462.0179 190.690095,459.655013 191.49381,456.954531 C191.49381,456.793788 191.550069,456.576788 191.66259,456.303525 C191.77511,456.030262 191.911739,455.668596 192.072482,455.218515 C192.233225,454.800583 192.345744,454.438917 192.410041,454.133505 C192.474338,453.828094 192.506486,453.562872 192.506486,453.337832 C192.506486,453.112791 192.426116,452.935977 192.265373,452.807382 C192.10463,452.678788 191.847445,452.614492 191.49381,452.614492 C191.172324,452.614492 190.746362,452.80738 190.21591,453.193164 C189.685458,453.578947 189.050533,454.189761 188.311115,455.025625 C187.410954,455.990083 186.687621,456.745563 186.141095,457.29209 C185.594569,457.838616 185.224866,458.160097 185.031974,458.256543 C184.710488,458.481583 184.332748,458.803064 183.898742,459.220996 C183.464736,459.638928 182.974477,460.105075 182.427951,460.619453 L182.138615,461.198125 C182.01002,461.455314 181.801058,461.744647 181.51172,462.066133 C181.383126,461.583904 181.158089,460.989163 180.836603,460.281894 C180.515117,459.574625 180.097192,458.690552 179.582814,457.629648 Z M227.226799,455.507851 L231.615061,452.614492 C231.775804,452.453749 231.968693,452.236749 232.193733,451.963486 C232.418773,451.690223 232.675958,451.296408 232.965296,450.782031 C233.190336,450.364099 233.487706,450.01047 233.857415,449.721132 C234.227124,449.431795 234.653086,449.17461 235.135315,448.94957 C235.392504,448.628084 235.762207,448.226232 236.244436,447.744003 C236.726665,447.261774 237.337479,446.699182 238.076897,446.05621 C238.430532,445.863319 238.880605,445.582023 239.427132,445.212314 C239.973658,444.842605 240.568398,444.352346 241.21137,443.741523 C244.136892,440.976743 246.700705,438.90319 248.902884,437.5208 C251.105063,436.13841 252.961617,435.447226 254.472601,435.447226 C255.308464,435.447226 255.927316,435.62404 256.329173,435.977675 C256.73103,436.33131 256.931956,436.829605 256.931956,437.472577 C256.931956,438.147698 256.811401,438.742438 256.570286,439.256816 C256.329172,439.771193 255.951431,440.205193 255.437054,440.558827 C254.633339,441.137502 253.76534,441.780465 252.83303,442.487734 C252.318653,443.162854 251.691764,443.87815 250.952347,444.633642 C250.212929,445.389134 249.34493,446.136578 248.348323,446.875996 C248.026837,447.293927 247.753578,447.663631 247.528538,447.985117 C247.367795,448.14586 247.062388,448.435193 246.612308,448.853124 C246.162227,449.271056 245.567487,449.753278 244.828069,450.299804 C244.506583,451.007073 243.807362,451.923295 242.730384,453.048496 C241.653406,454.173697 240.214777,455.523918 238.414456,457.099199 C238.189416,457.324239 237.787564,457.838609 237.208889,458.642324 C236.630215,459.446039 235.874734,460.506927 234.942424,461.825019 L235.279983,462.259023 C235.987252,462.033983 236.726659,461.648206 237.498225,461.101679 C238.269792,460.555153 239.121717,459.831821 240.054026,458.93166 C241.147079,457.935053 242.039189,457.123313 242.730384,456.496416 C243.421579,455.869518 243.911837,455.45963 244.201175,455.266738 L244.876292,454.880957 C245.101332,454.752362 245.358517,454.591622 245.647854,454.39873 C247.12669,452.630557 248.509059,451.320521 249.795003,450.468584 C251.080947,449.616646 252.270427,449.190683 253.36348,449.190683 C254.0386,449.190683 254.55297,449.455905 254.906605,449.986357 C255.260239,450.516809 255.469202,451.312475 255.533499,452.373378 C255.469202,453.980808 255.437054,455.523918 255.437054,457.002754 C255.404905,458.031509 255.686201,458.955767 256.28095,459.775556 C256.875699,460.595346 257.655291,461.005234 258.619749,461.005234 C258.909087,461.005234 259.190383,460.924864 259.463646,460.764121 C259.736909,460.603378 260.018205,460.394415 260.307542,460.137226 C260.532582,459.847889 260.749582,459.57463 260.958548,459.317441 C261.167514,459.060252 261.384514,458.803067 261.609554,458.545879 C261.738148,458.481581 261.923,458.369063 262.164115,458.20832 C262.405229,458.047577 262.638303,457.854688 262.863343,457.629648 C263.313423,458.594106 263.691164,459.437994 263.996576,460.161338 C264.301987,460.884681 264.535061,461.519606 264.695804,462.066133 C263.956386,462.741253 263.225017,463.440475 262.501673,464.163818 C261.77833,464.887162 261.014812,465.570309 260.211097,466.213281 C259.246639,466.952699 258.314344,467.507254 257.414183,467.876963 C256.514022,468.246672 255.613875,468.431523 254.713714,468.431523 C252.624055,468.431523 251.016649,467.836783 249.891448,466.647285 C248.766247,465.457787 248.107211,463.657492 247.914319,461.246347 C247.914319,460.95701 247.874134,460.65964 247.793763,460.354228 C247.713391,460.048817 247.544614,459.735372 247.287425,459.413886 C247.126682,459.574629 246.949867,459.743407 246.756976,459.920224 C246.564084,460.097042 246.339047,460.330115 246.081858,460.619453 L244.514622,461.825019 C243.887724,462.307248 243.156355,462.885914 242.320491,463.561035 C241.19529,464.718385 240.246921,465.666754 239.475354,466.406172 C238.703788,467.14559 238.15727,467.676033 237.835784,467.997519 C237.192812,468.544046 236.445368,469.090564 235.59343,469.63709 C234.741492,470.183616 233.785086,470.746208 232.724182,471.324883 C232.049062,471.678517 231.470396,471.959813 230.988167,472.168779 C230.505938,472.377745 230.152308,472.482227 229.927268,472.482227 C228.384135,472.482227 227.242877,472.104486 226.503459,471.348994 C225.764042,470.593502 225.394338,469.428133 225.394338,467.852851 C225.394338,466.984839 225.57919,466.157025 225.948899,465.369385 C226.318608,464.581744 226.873163,463.818226 227.612581,463.078808 C227.676878,462.660877 227.709026,462.323321 227.709026,462.066133 C227.709026,461.90539 227.668841,461.736612 227.588469,461.559795 C227.508098,461.382977 227.403616,461.182052 227.275022,460.957011 L226.624016,459.437998 C226.382902,458.875397 226.11768,458.27262 225.828342,457.629648 C225.956937,457.501054 226.141788,457.251906 226.382903,456.882197 C226.624017,456.512488 226.905313,456.054377 227.226799,455.507851 Z" id="luna" fill="#EDEDED"></path>
        </g>
    </g>
</svg>